<?xml version="1.0" encoding="UTF-8" standalone="no"?> <svg id="Layer_1" data-name="Layer 1" xmlns="http://www.w3.org/2000/svg" viewBox="0 0 128 128"><defs><style>.cls-1{fill:#2d3e50;}.cls-2{fill:#2e79bd;}</style></defs><title>b</title><path class="cls-1" d="M98.96945,25.36982h24.0133a3.499,3.499,0,0,0,0-6.998H98.96945a3.499,3.499,0,1,0,0,6.998Z"/><path class="cls-1" d="M81.988,18.37177H56.515a3.499,3.499,0,0,0,0,6.998H81.98846a3.499,3.499,0,0,0-.00051-6.998Z"/><path class="cls-1" d="M5.56951,38.10646H31.04244A3.50309,3.50309,0,0,0,34.54138,34.607V9.13442a3.503,3.503,0,0,0-3.49894-3.49911H5.56951A3.50316,3.50316,0,0,0,2.0704,9.13442V34.607A3.50324,3.50324,0,0,0,5.56951,38.10646ZM9.06862,12.63387h18.4742V31.10824H9.06862Z"/><path class="cls-1" d="M122.98275,102.63035H98.96945a3.49885,3.49885,0,1,0,0,6.99771h24.0133a3.49885,3.49885,0,0,0,0-6.99771Z"/><path class="cls-1" d="M81.988,102.63035H56.515a3.49885,3.49885,0,1,0,0,6.99771H81.98846a3.49885,3.49885,0,0,0-.00051-6.99771Z"/><path class="cls-1" d="M31.04244,89.89371H5.56951A3.50316,3.50316,0,0,0,2.0704,93.39282v25.47276a3.50316,3.50316,0,0,0,3.49911,3.49911H31.04244a3.503,3.503,0,0,0,3.49894-3.49911V93.39282A3.503,3.503,0,0,0,31.04244,89.89371Zm-3.49962,25.47276H9.06862v-18.474h18.4742Z"/><path class="cls-2" d="M122.98275,60.50089H98.96945a3.49911,3.49911,0,1,0,0,6.99822h24.0133a3.49911,3.49911,0,0,0,0-6.99822Z"/><path class="cls-2" d="M81.988,60.50089H56.515a3.49911,3.49911,0,0,0,0,6.99822H81.98846a3.49911,3.49911,0,0,0-.00051-6.99822Z"/><path class="cls-2" d="M34.05256,52.68395a3.56522,3.56522,0,0,0-5.03631.00051L13.94108,67.75912,7.596,61.41424a3.56157,3.56157,0,1,0-5.03665,5.037l8.86328,8.86294a3.5611,3.5611,0,0,0,5.0358.00051L34.05273,57.72043a3.56419,3.56419,0,0,0,0-5.03648Z"/></svg>